<?xml version="1.0" encoding="utf-8"?>
<!-- Generator: Adobe Illustrator 21.0.0, SVG Export Plug-In . SVG Version: 6.00 Build 0)  -->
<svg version="1.1" id="Layer_1" xmlns="http://www.w3.org/2000/svg" xmlns:xlink="http://www.w3.org/1999/xlink" x="0px" y="0px"
	 viewBox="0 0 64 64" style="enable-background:new 0 0 64 64;" xml:space="preserve">
<style type="text/css">
	.st0{fill:#455A64;stroke:#37474F;stroke-linecap:round;stroke-linejoin:round;stroke-miterlimit:10;}
	.st1{fill:#78909C;stroke:#37474F;stroke-linecap:round;stroke-linejoin:round;stroke-miterlimit:10;}
	.st2{fill:#ECEFF1;stroke:#37474F;stroke-linecap:round;stroke-linejoin:round;stroke-miterlimit:10;}
	.st3{fill:none;stroke:#FFFFFF;stroke-linecap:round;stroke-linejoin:round;stroke-miterlimit:10;}
	.st4{fill:#FFCA28;stroke:#37474F;stroke-linecap:round;stroke-linejoin:round;stroke-miterlimit:10;}
	.st5{fill:none;stroke:#37474F;stroke-linecap:round;stroke-linejoin:round;stroke-miterlimit:10;}
	.st6{fill:#B0BEC5;}
	.st7{fill:#37474F;}
	.st8{fill:#455A64;}
	.st9{fill:#9CCC65;stroke:#37474F;stroke-linecap:round;stroke-linejoin:round;stroke-miterlimit:10;}
	.st10{fill:none;stroke:#C5E1A5;stroke-linecap:round;stroke-linejoin:round;stroke-miterlimit:10;}
	.st11{fill:#26C6DA;stroke:#37474F;stroke-linecap:round;stroke-linejoin:round;stroke-miterlimit:10;}
	.st12{fill:#EF5350;stroke:#37474F;stroke-linecap:round;stroke-linejoin:round;stroke-miterlimit:10;}
	.st13{fill:#B0BEC5;stroke:#37474F;stroke-linecap:round;stroke-linejoin:round;stroke-miterlimit:10;}
	.st14{fill:none;stroke:#EF9A9A;stroke-linecap:round;stroke-linejoin:round;stroke-miterlimit:10;}
	.st15{fill:none;stroke:#FFE082;stroke-linecap:round;stroke-linejoin:round;stroke-miterlimit:10;}
	.st16{fill:#D32F2F;stroke:#37474F;stroke-linecap:round;stroke-linejoin:round;stroke-miterlimit:10;}
	.st17{fill:#0097A7;stroke:#37474F;stroke-linecap:round;stroke-linejoin:round;stroke-miterlimit:10;}
	.st18{fill:#689F38;stroke:#37474F;stroke-linecap:round;stroke-linejoin:round;stroke-miterlimit:10;}
	.st19{fill:#FFA000;stroke:#37474F;stroke-linecap:round;stroke-linejoin:round;stroke-miterlimit:10;}
	.st20{fill:#FFA000;}
	.st21{fill:#FF6F00;}
	.st22{fill:#D32F2F;}
	.st23{fill:#0097A7;}
	.st24{fill:none;stroke:#80DEEA;stroke-linecap:round;stroke-linejoin:round;stroke-miterlimit:10;}
	.st25{fill:#689F38;}
	.st26{fill:none;stroke:#B0BEC5;stroke-linecap:round;stroke-linejoin:round;stroke-miterlimit:10;}
	.st27{fill:#78909C;stroke:#37474F;stroke-miterlimit:10;}
	.st28{fill:#78909C;}
	.st29{fill:#B71C1C;}
	.st30{fill:#F57F17;}
	.st31{fill:#006064;}
	.st32{fill:#26A69A;stroke:#37474F;stroke-linecap:round;stroke-linejoin:round;stroke-miterlimit:10;}
</style>
<g>
	<path class="st19" d="M30,7C15.1,7,3,19.1,3,34c0,7.9,3.4,14.9,8.8,19.9L7.9,57H3v4h27c14.9,0,27-12.1,27-27S44.9,7,30,7z"/>
	<path class="st4" d="M30,3C15.1,3,3,15.1,3,30c0,7.9,3.4,14.9,8.8,19.9L3,57h27c14.9,0,27-12.1,27-27S44.9,3,30,3z"/>
	<path class="st15" d="M5,30C5,16.2,16.2,5,30,5"/>
	<path class="st2" d="M30,45.9c5.6,0,10.2-3.8,11.6-8.9c0.4-1.6-0.8-3.1-2.4-3.1H20.8c-1.6,0-2.8,1.5-2.4,3.1
		C19.8,42.1,24.4,45.9,30,45.9z"/>
	<g>
		<path class="st1" d="M24.8,25.9c-0.4,0-0.8-0.1-1.1-0.4c-2.3-2.3-6.1-2.3-8.5,0c-0.6,0.6-1.5,0.6-2.1,0c-0.6-0.6-0.6-1.5,0-2.1
			c3.5-3.5,9.2-3.5,12.7,0c0.6,0.6,0.6,1.5,0,2.1C25.5,25.7,25.1,25.9,24.8,25.9z"/>
	</g>
	<g>
		<path class="st1" d="M45.9,25.9c-0.4,0-0.8-0.1-1.1-0.4c-2.3-2.3-6.1-2.3-8.5,0c-0.6,0.6-1.5,0.6-2.1,0c-0.6-0.6-0.6-1.5,0-2.1
			c3.5-3.5,9.2-3.5,12.7,0c0.6,0.6,0.6,1.5,0,2.1C46.6,25.7,46.2,25.9,45.9,25.9z"/>
	</g>
	<path class="st20" d="M51.2,45.9L51.2,45.9C50,44.7,48.4,44,46.7,44c-1.7,0-3.3,0.7-4.5,1.8c-1.2,1.2-1.8,2.8-1.8,4.5
		c0,1.3,0.4,2.5,1.1,3.5C45.3,52,48.7,49.3,51.2,45.9z"/>
	<path class="st21" d="M52.8,45.4c-2.7,3.9-6.3,7.1-10.6,9.3c0,0,0.1,0.1,0.1,0.1l1.7,1.7c4.6-2.8,8.2-7,10.4-12
		C53.8,44.7,53.2,45,52.8,45.4z"/>
	<path class="st12" d="M53.6,47.3l-1.9,1.9l-1.9-1.9c-1.7-1.7-4.4-1.7-6.1,0l0,0c-1.7,1.7-1.7,4.4,0,6.1l7.3,7.3
		c0.4,0.4,1,0.4,1.4,0l7.3-7.3c1.7-1.7,1.7-4.4,0-6.1l0,0C58.1,45.6,55.3,45.6,53.6,47.3z"/>
	<path class="st14" d="M44.4,50.3c0-0.6,0.2-1.2,0.7-1.6c0.4-0.4,1-0.7,1.6-0.7"/>
</g>
</svg>
