<?xml version="1.0" encoding="utf-8"?>
<!-- Generator: Adobe Illustrator 21.0.0, SVG Export Plug-In . SVG Version: 6.00 Build 0)  -->
<svg version="1.1" id="Layer_1" xmlns="http://www.w3.org/2000/svg" xmlns:xlink="http://www.w3.org/1999/xlink" x="0px" y="0px"
	 viewBox="0 0 64 64" style="enable-background:new 0 0 64 64;" xml:space="preserve">
<style type="text/css">
	.st0{fill:#455A64;stroke:#37474F;stroke-linecap:round;stroke-linejoin:round;stroke-miterlimit:10;}
	.st1{fill:#78909C;stroke:#37474F;stroke-linecap:round;stroke-linejoin:round;stroke-miterlimit:10;}
	.st2{fill:#ECEFF1;stroke:#37474F;stroke-linecap:round;stroke-linejoin:round;stroke-miterlimit:10;}
	.st3{fill:none;stroke:#FFFFFF;stroke-linecap:round;stroke-linejoin:round;stroke-miterlimit:10;}
	.st4{fill:#FFCA28;stroke:#37474F;stroke-linecap:round;stroke-linejoin:round;stroke-miterlimit:10;}
	.st5{fill:none;stroke:#37474F;stroke-linecap:round;stroke-linejoin:round;stroke-miterlimit:10;}
	.st6{fill:#B0BEC5;}
	.st7{fill:#37474F;}
	.st8{fill:#455A64;}
	.st9{fill:#9CCC65;stroke:#37474F;stroke-linecap:round;stroke-linejoin:round;stroke-miterlimit:10;}
	.st10{fill:none;stroke:#C5E1A5;stroke-linecap:round;stroke-linejoin:round;stroke-miterlimit:10;}
	.st11{fill:#26C6DA;stroke:#37474F;stroke-linecap:round;stroke-linejoin:round;stroke-miterlimit:10;}
	.st12{fill:#EF5350;stroke:#37474F;stroke-linecap:round;stroke-linejoin:round;stroke-miterlimit:10;}
	.st13{fill:#B0BEC5;stroke:#37474F;stroke-linecap:round;stroke-linejoin:round;stroke-miterlimit:10;}
	.st14{fill:none;stroke:#EF9A9A;stroke-linecap:round;stroke-linejoin:round;stroke-miterlimit:10;}
	.st15{fill:none;stroke:#FFE082;stroke-linecap:round;stroke-linejoin:round;stroke-miterlimit:10;}
	.st16{fill:#D32F2F;stroke:#37474F;stroke-linecap:round;stroke-linejoin:round;stroke-miterlimit:10;}
	.st17{fill:#0097A7;stroke:#37474F;stroke-linecap:round;stroke-linejoin:round;stroke-miterlimit:10;}
	.st18{fill:#689F38;stroke:#37474F;stroke-linecap:round;stroke-linejoin:round;stroke-miterlimit:10;}
	.st19{fill:#FFA000;stroke:#37474F;stroke-linecap:round;stroke-linejoin:round;stroke-miterlimit:10;}
	.st20{fill:#FFA000;}
	.st21{fill:#FF6F00;}
	.st22{fill:#D32F2F;}
	.st23{fill:#0097A7;}
	.st24{fill:none;stroke:#80DEEA;stroke-linecap:round;stroke-linejoin:round;stroke-miterlimit:10;}
	.st25{fill:#689F38;}
	.st26{fill:none;stroke:#B0BEC5;stroke-linecap:round;stroke-linejoin:round;stroke-miterlimit:10;}
	.st27{fill:#78909C;stroke:#37474F;stroke-miterlimit:10;}
	.st28{fill:#78909C;}
	.st29{fill:#B71C1C;}
	.st30{fill:#F57F17;}
	.st31{fill:#006064;}
	.st32{fill:#26A69A;stroke:#37474F;stroke-linecap:round;stroke-linejoin:round;stroke-miterlimit:10;}
</style>
<g>
	<circle class="st16" cx="46.8" cy="19.5" r="15"/>
	<path class="st1" d="M47.2,63.5h-1c-1.4,0-2.5-1.1-2.5-2.5V30.5h6V61C49.8,62.4,48.6,63.5,47.2,63.5z"/>
	<path class="st0" d="M19.2,58.5h5c1.4,0,2.5-1.1,2.5-2.5V43c0-1.4-1.1-2.5-2.5-2.5h-5c-1.4,0-2.5,1.1-2.5,2.5v13
		C16.8,57.3,17.9,58.5,19.2,58.5z"/>
	<path class="st13" d="M56.2,55c-0.4,0.3-0.9,0.5-1.5,0.5H36.8c-2,0-4-0.4-5.9-1.2l-4.2-1.8v4l4.2,1.8c1.9,0.8,3.9,1.2,5.9,1.2h17.9
		c1.4,0,2.5-1.1,2.5-2.5C57.2,56.2,56.8,55.5,56.2,55z"/>
	<path class="st2" d="M57.2,43c0-1.4-1.1-2.5-2.5-2.5c1.5,0,2.6-1.3,2.5-2.8c-0.1-1.3-1.3-2.2-2.6-2.2l-10.9,0V33
		c0-1.4-1.1-2.5-2.5-2.5h-0.4c-1.3,0-2.6,0.5-3.5,1.5l-1.5,1.5c-1.3,1.3-2.9,2.4-4.7,3.2l-4.3,1.9v14l4.2,1.8
		c1.9,0.8,3.9,1.2,5.9,1.2l17.8,0c1.3,0,2.5-0.9,2.6-2.2c0.1-1.5-1-2.8-2.5-2.8c1.4,0,2.5-1.1,2.5-2.5c0-1.4-1.1-2.5-2.5-2.5
		C56.1,45.5,57.2,44.4,57.2,43z"/>
	<path class="st3" d="M28.7,39.8l3.1-1.3c2-0.9,3.8-2.1,5.3-3.6l1.5-1.5c0.6-0.6,1.3-0.9,2.1-0.9"/>
	<path class="st1" d="M19.2,54.5h5c1.4,0,2.5-1.1,2.5-2.5V39c0-1.4-1.1-2.5-2.5-2.5h-5c-1.4,0-2.5,1.1-2.5,2.5v13
		C16.8,53.3,17.9,54.5,19.2,54.5z"/>
	<line class="st5" x1="54.8" y1="40.5" x2="51.8" y2="40.5"/>
	<line class="st5" x1="54.8" y1="45.5" x2="51.8" y2="45.5"/>
	<line class="st5" x1="54.8" y1="50.5" x2="51.8" y2="50.5"/>
	<circle class="st11" cx="21.8" cy="40.5" r="2"/>
	<circle class="st12" cx="46.8" cy="15.5" r="15"/>
	<path class="st14" d="M33.8,15.5c0-7.2,5.8-13,13-13"/>
	<path class="st17" d="M4.8,56.5h12v-14h-12c-1.4,0-2.5,1.1-2.5,2.5v9C2.2,55.4,3.4,56.5,4.8,56.5z"/>
	<path class="st11" d="M4.8,52.5h12v-14h-12c-1.4,0-2.5,1.1-2.5,2.5v9C2.2,51.3,3.4,52.5,4.8,52.5z"/>
	<path class="st2" d="M50.8,9.6l-4.1,4.1l-4.1-4.1c-0.6-0.6-1.5-0.6-2.1,0c-0.6,0.6-0.6,1.5,0,2.1l4.1,4.1l-4.1,4.1
		c-0.6,0.6-0.6,1.5,0,2.1c0.6,0.6,1.5,0.6,2.1,0l4.1-4.1l4.1,4.1c0.6,0.6,1.5,0.6,2.1,0c0.6-0.6,0.6-1.5,0-2.1l-4.1-4.1l4.1-4.1
		c0.6-0.6,0.6-1.5,0-2.1C52.4,9,51.4,9,50.8,9.6z"/>
</g>
</svg>
