<?xml version="1.0" encoding="utf-8"?>
<!-- Generator: Adobe Illustrator 20.1.0, SVG Export Plug-In . SVG Version: 6.00 Build 0)  -->
<svg version="1.1" id="Layer_1" xmlns="http://www.w3.org/2000/svg" xmlns:xlink="http://www.w3.org/1999/xlink" x="0px" y="0px"
	 viewBox="0 0 32 20" style="enable-background:new 0 0 32 20;" xml:space="preserve">
<title>car; automobile; walk; transport; vehicle; driving; drive</title>
<desc>Transport type mini line, icon, background and graphic. The icon is black and white, linear  flat, vector, pixel perfect, minimal, suitable for web and print. </desc>
<metadata><?xpacket begin="﻿" id="W5M0MpCehiHzreSzNTczkc9d"?>
<x:xmpmeta xmlns:x="adobe:ns:meta/" x:xmptk="Adobe XMP Core 5.6-c111 79.158366, 2015/09/25-01:12:00        ">
   <rdf:RDF xmlns:rdf="http://www.w3.org/1999/02/22-rdf-syntax-ns#">
      <rdf:Description rdf:about=""
            xmlns:xmp="http://ns.adobe.com/xap/1.0/"
            xmlns:xmpMM="http://ns.adobe.com/xap/1.0/mm/"
            xmlns:stEvt="http://ns.adobe.com/xap/1.0/sType/ResourceEvent#"
            xmlns:dc="http://purl.org/dc/elements/1.1/">
         <xmp:MetadataDate>2017-02-12T22:14:28+03:00</xmp:MetadataDate>
         <xmpMM:InstanceID>xmp.iid:1bff5ab0-50d5-4a4e-925c-0f063bf253e2</xmpMM:InstanceID>
         <xmpMM:DocumentID>xmp.did:3f625fd8-3a81-40a9-9db9-10c682e24e23</xmpMM:DocumentID>
         <xmpMM:OriginalDocumentID>xmp.did:3f625fd8-3a81-40a9-9db9-10c682e24e23</xmpMM:OriginalDocumentID>
         <xmpMM:History>
            <rdf:Seq>
               <rdf:li>
                  <rdf:Description>
                     <stEvt:action>saved</stEvt:action>
                     <stEvt:instanceID>xmp.iid:3f625fd8-3a81-40a9-9db9-10c682e24e23</stEvt:instanceID>
                     <stEvt:when>2017-02-03T11:56:49+03:00</stEvt:when>
                     <stEvt:softwareAgent>Adobe Bridge CC 2015 (Macintosh)</stEvt:softwareAgent>
                     <stEvt:changed>/metadata</stEvt:changed>
                  </rdf:Description>
               </rdf:li>
               <rdf:li>
                  <rdf:Description>
                     <stEvt:action>saved</stEvt:action>
                     <stEvt:instanceID>xmp.iid:1bff5ab0-50d5-4a4e-925c-0f063bf253e2</stEvt:instanceID>
                     <stEvt:when>2017-02-12T22:14:28+03:00</stEvt:when>
                     <stEvt:softwareAgent>Adobe Bridge CC 2015 (Macintosh)</stEvt:softwareAgent>
                     <stEvt:changed>/metadata</stEvt:changed>
                  </rdf:Description>
               </rdf:li>
            </rdf:Seq>
         </xmpMM:History>
         <dc:title>
            <rdf:Alt>
               <rdf:li xml:lang="x-default">car; automobile; walk; transport; vehicle; driving; drive</rdf:li>
            </rdf:Alt>
         </dc:title>
         <dc:description>
            <rdf:Alt>
               <rdf:li xml:lang="x-default">Transport type mini line, icon, background and graphic. The icon is black and white, linear  flat, vector, pixel perfect, minimal, suitable for web and print. </rdf:li>
            </rdf:Alt>
         </dc:description>
         <dc:subject>
            <rdf:Bag>
               <rdf:li>car</rdf:li>
               <rdf:li>automobile</rdf:li>
               <rdf:li>walk</rdf:li>
               <rdf:li>transport</rdf:li>
               <rdf:li>vehicle</rdf:li>
               <rdf:li>driving</rdf:li>
               <rdf:li>drive</rdf:li>
            </rdf:Bag>
         </dc:subject>
      </rdf:Description>
   </rdf:RDF>
</x:xmpmeta>
                                                                                                    
                                                                                                    
                                                                                                    
                                                                                                    
                                                                                                    
                                                                                                    
                                                                                                    
                                                                                                    
                                                                                                    
                                                                                                    
                                                                                                   
<?xpacket end="w"?></metadata>
<path d="M8,17c1.8,0,3.4-1.2,3.9-3h8.3c0.5,2.1,2.7,3.4,4.8,2.9c1.4-0.4,2.5-1.5,2.9-2.9H32V9.3c0-1.4-0.9-2.5-2.3-2.8L23.4,5
	l-2.5-4C20.6,0.4,20,0,19.3,0H6.9C6.2,0,5.6,0.4,5.2,0.9L2.6,5.2L0,8.2V14h4.1C4.6,15.8,6.2,17,8,17z M8,15c-1.1,0-2-0.9-2-2
	c0-1.1,0.9-2,2-2s2,0.9,2,2C10,14.1,9.1,15,8,15z M24,15c-1.1,0-2-0.9-2-2c0-1.1,0.9-2,2-2c1.1,0,2,0.9,2,2C26,14.1,25.1,15,24,15z
	 M2,9l2.1-2.5L6.9,2l12.4,0l2.9,4.7l7.1,1.6C29.7,8.5,30,8.8,30,9.3V12h-2.1c-0.5-2.1-2.7-3.4-4.8-2.9c-1.4,0.4-2.5,1.5-2.9,2.9
	h-8.3C11.3,9.9,9.1,8.6,7,9.1C5.6,9.5,4.5,10.6,4.1,12H2V9z"/>
<rect y="18" width="32" height="2"/>
</svg>
