<?xml version="1.0" encoding="utf-8"?>
<!-- Generator: Adobe Illustrator 21.0.0, SVG Export Plug-In . SVG Version: 6.00 Build 0)  -->
<svg version="1.1" id="Layer_1" xmlns="http://www.w3.org/2000/svg" xmlns:xlink="http://www.w3.org/1999/xlink" x="0px" y="0px"
	 viewBox="0 0 64 64" style="enable-background:new 0 0 64 64;" xml:space="preserve">
<style type="text/css">
	.st0{fill:#455A64;stroke:#37474F;stroke-linecap:round;stroke-linejoin:round;stroke-miterlimit:10;}
	.st1{fill:#78909C;stroke:#37474F;stroke-linecap:round;stroke-linejoin:round;stroke-miterlimit:10;}
	.st2{fill:#ECEFF1;stroke:#37474F;stroke-linecap:round;stroke-linejoin:round;stroke-miterlimit:10;}
	.st3{fill:none;stroke:#FFFFFF;stroke-linecap:round;stroke-linejoin:round;stroke-miterlimit:10;}
	.st4{fill:#FFCA28;stroke:#37474F;stroke-linecap:round;stroke-linejoin:round;stroke-miterlimit:10;}
	.st5{fill:none;stroke:#37474F;stroke-linecap:round;stroke-linejoin:round;stroke-miterlimit:10;}
	.st6{fill:#B0BEC5;}
	.st7{fill:#37474F;}
	.st8{fill:#455A64;}
	.st9{fill:#9CCC65;stroke:#37474F;stroke-linecap:round;stroke-linejoin:round;stroke-miterlimit:10;}
	.st10{fill:none;stroke:#C5E1A5;stroke-linecap:round;stroke-linejoin:round;stroke-miterlimit:10;}
	.st11{fill:#26C6DA;stroke:#37474F;stroke-linecap:round;stroke-linejoin:round;stroke-miterlimit:10;}
	.st12{fill:#EF5350;stroke:#37474F;stroke-linecap:round;stroke-linejoin:round;stroke-miterlimit:10;}
	.st13{fill:#B0BEC5;stroke:#37474F;stroke-linecap:round;stroke-linejoin:round;stroke-miterlimit:10;}
	.st14{fill:none;stroke:#EF9A9A;stroke-linecap:round;stroke-linejoin:round;stroke-miterlimit:10;}
	.st15{fill:none;stroke:#FFE082;stroke-linecap:round;stroke-linejoin:round;stroke-miterlimit:10;}
	.st16{fill:#D32F2F;stroke:#37474F;stroke-linecap:round;stroke-linejoin:round;stroke-miterlimit:10;}
	.st17{fill:#0097A7;stroke:#37474F;stroke-linecap:round;stroke-linejoin:round;stroke-miterlimit:10;}
	.st18{fill:#689F38;stroke:#37474F;stroke-linecap:round;stroke-linejoin:round;stroke-miterlimit:10;}
	.st19{fill:#FFA000;stroke:#37474F;stroke-linecap:round;stroke-linejoin:round;stroke-miterlimit:10;}
	.st20{fill:#FFA000;}
	.st21{fill:#FF6F00;}
	.st22{fill:#D32F2F;}
	.st23{fill:#0097A7;}
	.st24{fill:none;stroke:#80DEEA;stroke-linecap:round;stroke-linejoin:round;stroke-miterlimit:10;}
	.st25{fill:#689F38;}
	.st26{fill:none;stroke:#B0BEC5;stroke-linecap:round;stroke-linejoin:round;stroke-miterlimit:10;}
	.st27{fill:#78909C;stroke:#37474F;stroke-miterlimit:10;}
	.st28{fill:#78909C;}
	.st29{fill:#B71C1C;}
	.st30{fill:#F57F17;}
	.st31{fill:#006064;}
	.st32{fill:#26A69A;stroke:#37474F;stroke-linecap:round;stroke-linejoin:round;stroke-miterlimit:10;}
</style>
<g>
	<path class="st19" d="M41.5,61.5l-9-4.9c-0.3-0.2-0.7-0.2-1,0l-9,4.9c-0.7,0.4-1.5-0.1-1.5-0.9V42.3h22v18.3
		C43,61.4,42.2,61.9,41.5,61.5z"/>
	<circle class="st19" cx="32" cy="26.3" r="20"/>
	<path class="st4" d="M41.5,57.5l-9-4.9c-0.3-0.2-0.7-0.2-1,0l-9,4.9c-0.7,0.4-1.5-0.1-1.5-0.9V38.3h22v18.3
		C43,57.4,42.2,57.9,41.5,57.5z"/>
	<circle class="st4" cx="32" cy="22.3" r="20"/>
	<circle class="st11" cx="32" cy="22.3" r="15"/>
	<path class="st2" d="M32.9,13l2,4.2c0.1,0.3,0.4,0.5,0.8,0.6l4.5,0.7c0.8,0.1,1.1,1.1,0.6,1.7l-3.3,3.4c-0.2,0.2-0.3,0.5-0.3,0.9
		l0.8,4.7c0.1,0.8-0.7,1.4-1.5,1L32.5,28c-0.3-0.2-0.7-0.2-1,0l-3.9,2.2c-0.7,0.4-1.6-0.2-1.5-1l0.8-4.7c0.1-0.3,0-0.6-0.3-0.9
		l-3.3-3.4c-0.6-0.6-0.2-1.6,0.6-1.7l4.5-0.7c0.3-0.1,0.6-0.3,0.8-0.6l2-4.2C31.5,12.3,32.5,12.3,32.9,13z"/>
	<path class="st24" d="M19,22.3c0-7.2,5.8-13,13-13"/>
	<path class="st2" d="M36,48.8h-8c-0.6,0-1-0.4-1-1v-1c0-0.6,0.4-1,1-1h8c0.6,0,1,0.4,1,1v1C37,48.4,36.6,48.8,36,48.8z"/>
</g>
</svg>
