<?xml version="1.0" encoding="utf-8"?>
<!-- Generator: Adobe Illustrator 21.0.0, SVG Export Plug-In . SVG Version: 6.00 Build 0)  -->
<svg version="1.1" id="Layer_1" xmlns="http://www.w3.org/2000/svg" xmlns:xlink="http://www.w3.org/1999/xlink" x="0px" y="0px"
	 viewBox="0 0 64 64" style="enable-background:new 0 0 64 64;" xml:space="preserve">
<style type="text/css">
	.st0{fill:#455A64;stroke:#37474F;stroke-linecap:round;stroke-linejoin:round;stroke-miterlimit:10;}
	.st1{fill:#78909C;stroke:#37474F;stroke-linecap:round;stroke-linejoin:round;stroke-miterlimit:10;}
	.st2{fill:#ECEFF1;stroke:#37474F;stroke-linecap:round;stroke-linejoin:round;stroke-miterlimit:10;}
	.st3{fill:none;stroke:#FFFFFF;stroke-linecap:round;stroke-linejoin:round;stroke-miterlimit:10;}
	.st4{fill:#FFCA28;stroke:#37474F;stroke-linecap:round;stroke-linejoin:round;stroke-miterlimit:10;}
	.st5{fill:none;stroke:#37474F;stroke-linecap:round;stroke-linejoin:round;stroke-miterlimit:10;}
	.st6{fill:#B0BEC5;}
	.st7{fill:#37474F;}
	.st8{fill:#455A64;}
	.st9{fill:#9CCC65;stroke:#37474F;stroke-linecap:round;stroke-linejoin:round;stroke-miterlimit:10;}
	.st10{fill:none;stroke:#C5E1A5;stroke-linecap:round;stroke-linejoin:round;stroke-miterlimit:10;}
	.st11{fill:#26C6DA;stroke:#37474F;stroke-linecap:round;stroke-linejoin:round;stroke-miterlimit:10;}
	.st12{fill:#EF5350;stroke:#37474F;stroke-linecap:round;stroke-linejoin:round;stroke-miterlimit:10;}
	.st13{fill:#B0BEC5;stroke:#37474F;stroke-linecap:round;stroke-linejoin:round;stroke-miterlimit:10;}
	.st14{fill:none;stroke:#EF9A9A;stroke-linecap:round;stroke-linejoin:round;stroke-miterlimit:10;}
	.st15{fill:none;stroke:#FFE082;stroke-linecap:round;stroke-linejoin:round;stroke-miterlimit:10;}
	.st16{fill:#D32F2F;stroke:#37474F;stroke-linecap:round;stroke-linejoin:round;stroke-miterlimit:10;}
	.st17{fill:#0097A7;stroke:#37474F;stroke-linecap:round;stroke-linejoin:round;stroke-miterlimit:10;}
	.st18{fill:#689F38;stroke:#37474F;stroke-linecap:round;stroke-linejoin:round;stroke-miterlimit:10;}
	.st19{fill:#FFA000;stroke:#37474F;stroke-linecap:round;stroke-linejoin:round;stroke-miterlimit:10;}
	.st20{fill:#FFA000;}
	.st21{fill:#FF6F00;}
	.st22{fill:#D32F2F;}
	.st23{fill:#0097A7;}
	.st24{fill:none;stroke:#80DEEA;stroke-linecap:round;stroke-linejoin:round;stroke-miterlimit:10;}
	.st25{fill:#689F38;}
	.st26{fill:none;stroke:#B0BEC5;stroke-linecap:round;stroke-linejoin:round;stroke-miterlimit:10;}
	.st27{fill:#78909C;stroke:#37474F;stroke-miterlimit:10;}
	.st28{fill:#78909C;}
	.st29{fill:#B71C1C;}
	.st30{fill:#F57F17;}
	.st31{fill:#006064;}
	.st32{fill:#26A69A;stroke:#37474F;stroke-linecap:round;stroke-linejoin:round;stroke-miterlimit:10;}
</style>
<g>
	<path class="st13" d="M58.5,60.5h-53c-2.8,0-5-2.2-5-5v-32c0-2.8,2.2-5,5-5h53c2.8,0,5,2.2,5,5v32C63.5,58.3,61.3,60.5,58.5,60.5z"
		/>
	<path class="st2" d="M58.5,56.5h-53c-2.8,0-5-2.2-5-5v-32c0-2.8,2.2-5,5-5h53c2.8,0,5,2.2,5,5v32C63.5,54.3,61.3,56.5,58.5,56.5z"
		/>
	<path class="st1" d="M54.5,17.5c1.1,0,2,0.9,2,2v32c0,1.1-0.9,2-2,2h-45c-1.1,0-2-0.9-2-2v-32c0-1.1,0.9-2,2-2H54.5z"/>
	<path class="st1" d="M62.5,40.5L62.5,40.5c-0.6,0-1-0.4-1-1v-8c0-0.6,0.4-1,1-1l0,0c0.6,0,1,0.4,1,1v8
		C63.5,40.1,63.1,40.5,62.5,40.5z"/>
	<path class="st11" d="M31.5,53.5h-22V48c0-4.1,3.4-7.5,7.5-7.5h7c4.1,0,7.5,3.4,7.5,7.5V53.5z"/>
	<path class="st2" d="M4.5,39.5h-1c-0.6,0-1-0.4-1-1v-6c0-0.6,0.4-1,1-1h1c0.6,0,1,0.4,1,1v6C5.5,39.1,5.1,39.5,4.5,39.5z"/>
	<path class="st2" d="M24.7,40.5c-0.2,0-0.4,0-0.7,0h-7c-0.1,0-0.2,0-0.3,0c0,2.2,1.8,4,4,4C22.9,44.5,24.6,42.7,24.7,40.5z"/>
	<line class="st5" x1="14.5" y1="53.5" x2="14.5" y2="48.5"/>
	<line class="st5" x1="26.5" y1="53.5" x2="26.5" y2="48.5"/>
	<path class="st2" d="M49,48.5H39c-1.4,0-2.5-1.1-2.5-2.5v0c0-1.4,1.1-2.5,2.5-2.5h10c1.4,0,2.5,1.1,2.5,2.5v0
		C51.5,47.4,50.4,48.5,49,48.5z"/>
	<g>
		<path class="st8" d="M54.5,18h-32v7.5c0,3.9,3.1,7,7,7h2l0,3.4c0,1.5,1.1,3,2.6,3.1c0.9,0.1,1.8-0.2,2.5-0.9l4.8-4.8
			c0.6-0.6,1.3-0.9,2.1-0.9h7.9c1.7,0,3.3-0.6,4.5-1.6V19.5C56,18.7,55.3,18,54.5,18z"/>
		<path class="st6" d="M22.5,15v2h32c1.4,0,2.5,1.1,2.5,2.5v10.3c0.9-1.2,1.5-2.7,1.5-4.3V15H22.5z"/>
	</g>
	<path class="st16" d="M24.5,12.5v13c0,2.8,2.2,5,5,5h3c0.6,0,1,0.4,1,1v4.6c0,0.9,1.1,1.3,1.7,0.7L40,32c0.9-0.9,2.2-1.5,3.5-1.5
		h7.9c2.8,0,5-2.2,5-5v-13c0-2.8-2.2-5-5-5h-22C26.7,7.5,24.5,9.7,24.5,12.5z"/>
	<path class="st12" d="M24.5,8.5v13c0,2.8,2.2,5,5,5h3c0.6,0,1,0.4,1,1v4.6c0,0.9,1.1,1.3,1.7,0.7L40,28c0.9-0.9,2.2-1.5,3.5-1.5
		h7.9c2.8,0,5-2.2,5-5v-13c0-2.8-2.2-5-5-5h-22C26.7,3.5,24.5,5.7,24.5,8.5z"/>
	<path class="st14" d="M26.5,12.5v-4c0-1.7,1.3-3,3-3h4"/>
	<line class="st5" x1="30.5" y1="10.5" x2="50.5" y2="10.5"/>
	<line class="st5" x1="30.5" y1="15" x2="50.5" y2="15"/>
	<line class="st5" x1="30.5" y1="19.5" x2="40.5" y2="19.5"/>
	<circle class="st2" cx="20.6" cy="31.5" r="9"/>
	<path class="st5" d="M23.8,34.7c-1.8,1.8-4.6,1.8-6.4,0"/>
	<path class="st4" d="M13.2,26.3l16.1,3.1c-0.9-4-4.5-7-8.8-7C17.5,22.5,14.9,24,13.2,26.3z"/>
	<path class="st4" d="M14.7,24.7L14.7,24.7c-1.9,1.7-3.1,4.1-3.1,6.8h0c1.7,0,3.1-1.4,3.1-3.1V24.7z"/>
</g>
</svg>
